# Blender v2.79 (sub 0) OBJ File: ''
# www.blender.org
mtllib N.mtl
o Text_Text.003
v 0.045621 -0.006872 0.124623
v 0.045621 0.384853 0.124623
v 0.113677 0.384853 0.124623
v 0.113677 0.222651 0.124623
v 0.294796 0.222651 0.124623
v 0.294796 0.384853 0.124623
v 0.362851 0.384853 0.124623
v 0.362851 -0.006872 0.124623
v 0.294796 -0.006872 0.124623
v 0.294796 0.165972 0.124623
v 0.113677 0.165972 0.124623
v 0.113677 -0.006872 0.124623
v 0.045621 -0.006872 -0.055377
v 0.045621 0.384853 -0.055377
v 0.113677 0.384853 -0.055377
v 0.113677 0.222651 -0.055377
v 0.294796 0.222651 -0.055377
v 0.294796 0.384853 -0.055377
v 0.362851 0.384853 -0.055377
v 0.362851 -0.006872 -0.055377
v 0.294796 -0.006872 -0.055377
v 0.294796 0.165972 -0.055377
v 0.113677 0.165972 -0.055377
v 0.113677 -0.006872 -0.055377
v 0.045621 -0.006872 -0.055377
v 0.044327 -0.008166 -0.055207
v 0.043121 -0.009372 -0.054707
v 0.042086 -0.010408 -0.053913
v 0.041291 -0.011202 -0.052877
v 0.040792 -0.011702 -0.051671
v 0.040621 -0.011872 -0.050377
v 0.045621 0.384853 -0.055377
v 0.044327 0.386147 -0.055207
v 0.043121 0.387353 -0.054707
v 0.042086 0.388388 -0.053913
v 0.041291 0.389183 -0.052877
v 0.040792 0.389682 -0.051671
v 0.040621 0.389853 -0.050377
v 0.113677 0.384853 -0.055377
v 0.114971 0.386147 -0.055207
v 0.116177 0.387353 -0.054707
v 0.117212 0.388388 -0.053913
v 0.118007 0.389183 -0.052877
v 0.118506 0.389682 -0.051671
v 0.118677 0.389853 -0.050377
v 0.113677 0.222651 -0.055377
v 0.114971 0.223945 -0.055207
v 0.116177 0.225151 -0.054707
v 0.117212 0.226186 -0.053913
v 0.118007 0.226981 -0.052877
v 0.118506 0.227481 -0.051671
v 0.118677 0.227651 -0.050377
v 0.294796 0.222651 -0.055377
v 0.293502 0.223945 -0.055207
v 0.292296 0.225151 -0.054707
v 0.291260 0.226186 -0.053913
v 0.290466 0.226981 -0.052877
v 0.289966 0.227481 -0.051671
v 0.289796 0.227651 -0.050377
v 0.294796 0.384853 -0.055377
v 0.293502 0.386147 -0.055207
v 0.292296 0.387353 -0.054707
v 0.291260 0.388388 -0.053913
v 0.290466 0.389183 -0.052877
v 0.289966 0.389682 -0.051671
v 0.289796 0.389853 -0.050377
v 0.362851 0.384853 -0.055377
v 0.364145 0.386147 -0.055207
v 0.365351 0.387353 -0.054707
v 0.366386 0.388388 -0.053913
v 0.367181 0.389183 -0.052877
v 0.367681 0.389682 -0.051671
v 0.367851 0.389853 -0.050377
v 0.362851 -0.006872 -0.055377
v 0.364145 -0.008166 -0.055207
v 0.365351 -0.009372 -0.054707
v 0.366386 -0.010408 -0.053913
v 0.367181 -0.011202 -0.052877
v 0.367681 -0.011702 -0.051671
v 0.367851 -0.011872 -0.050377
v 0.294796 -0.006872 -0.055377
v 0.293502 -0.008166 -0.055207
v 0.292296 -0.009372 -0.054707
v 0.291260 -0.010408 -0.053913
v 0.290466 -0.011202 -0.052877
v 0.289966 -0.011702 -0.051671
v 0.289796 -0.011872 -0.050377
v 0.294796 0.165972 -0.055377
v 0.293502 0.164678 -0.055207
v 0.292296 0.163472 -0.054707
v 0.291260 0.162436 -0.053913
v 0.290466 0.161642 -0.052877
v 0.289966 0.161142 -0.051671
v 0.289796 0.160972 -0.050377
v 0.113677 0.165972 -0.055377
v 0.114971 0.164678 -0.055207
v 0.116177 0.163472 -0.054707
v 0.117212 0.162436 -0.053913
v 0.118007 0.161642 -0.052877
v 0.118506 0.161142 -0.051671
v 0.118677 0.160972 -0.050377
v 0.113677 -0.006872 -0.055377
v 0.114971 -0.008166 -0.055207
v 0.116177 -0.009372 -0.054707
v 0.117212 -0.010408 -0.053913
v 0.118007 -0.011202 -0.052877
v 0.118506 -0.011702 -0.051671
v 0.118677 -0.011872 -0.050377
v 0.040621 -0.011872 -0.050377
v 0.040621 -0.011872 0.119623
v 0.040621 0.389853 -0.050377
v 0.040621 0.389853 0.119623
v 0.118677 0.389853 -0.050377
v 0.118677 0.389853 0.119623
v 0.118677 0.227651 -0.050377
v 0.118677 0.227651 0.119623
v 0.289796 0.227651 -0.050377
v 0.289796 0.227651 0.119623
v 0.289796 0.389853 -0.050377
v 0.289796 0.389853 0.119623
v 0.367851 0.389853 -0.050377
v 0.367851 0.389853 0.119623
v 0.367851 -0.011872 -0.050377
v 0.367851 -0.011872 0.119623
v 0.289796 -0.011872 -0.050377
v 0.289796 -0.011872 0.119623
v 0.289796 0.160972 -0.050377
v 0.289796 0.160972 0.119623
v 0.118677 0.160972 -0.050377
v 0.118677 0.160972 0.119623
v 0.118677 -0.011872 -0.050377
v 0.118677 -0.011872 0.119623
v 0.040621 -0.011872 0.119623
v 0.040792 -0.011702 0.120917
v 0.041291 -0.011202 0.122123
v 0.042086 -0.010408 0.123158
v 0.043121 -0.009372 0.123953
v 0.044327 -0.008166 0.124452
v 0.045621 -0.006872 0.124623
v 0.040621 0.389853 0.119623
v 0.040792 0.389682 0.120917
v 0.041291 0.389183 0.122123
v 0.042086 0.388388 0.123158
v 0.043121 0.387353 0.123953
v 0.044327 0.386147 0.124452
v 0.045621 0.384853 0.124623
v 0.118677 0.389853 0.119623
v 0.118506 0.389682 0.120917
v 0.118007 0.389183 0.122123
v 0.117212 0.388388 0.123158
v 0.116177 0.387353 0.123953
v 0.114971 0.386147 0.124452
v 0.113677 0.384853 0.124623
v 0.118677 0.227651 0.119623
v 0.118506 0.227481 0.120917
v 0.118007 0.226981 0.122123
v 0.117212 0.226186 0.123158
v 0.116177 0.225151 0.123953
v 0.114971 0.223945 0.124452
v 0.113677 0.222651 0.124623
v 0.289796 0.227651 0.119623
v 0.289966 0.227481 0.120917
v 0.290466 0.226981 0.122123
v 0.291260 0.226186 0.123158
v 0.292296 0.225151 0.123953
v 0.293502 0.223945 0.124452
v 0.294796 0.222651 0.124623
v 0.289796 0.389853 0.119623
v 0.289966 0.389682 0.120917
v 0.290466 0.389183 0.122123
v 0.291260 0.388388 0.123158
v 0.292296 0.387353 0.123953
v 0.293502 0.386147 0.124452
v 0.294796 0.384853 0.124623
v 0.367851 0.389853 0.119623
v 0.367681 0.389682 0.120917
v 0.367181 0.389183 0.122123
v 0.366386 0.388388 0.123158
v 0.365351 0.387353 0.123953
v 0.364145 0.386147 0.124452
v 0.362851 0.384853 0.124623
v 0.367851 -0.011872 0.119623
v 0.367681 -0.011702 0.120917
v 0.367181 -0.011202 0.122123
v 0.366386 -0.010408 0.123158
v 0.365351 -0.009372 0.123953
v 0.364145 -0.008166 0.124452
v 0.362851 -0.006872 0.124623
v 0.289796 -0.011872 0.119623
v 0.289966 -0.011702 0.120917
v 0.290466 -0.011202 0.122123
v 0.291260 -0.010408 0.123158
v 0.292296 -0.009372 0.123953
v 0.293502 -0.008166 0.124452
v 0.294796 -0.006872 0.124623
v 0.289796 0.160972 0.119623
v 0.289966 0.161142 0.120917
v 0.290466 0.161642 0.122123
v 0.291260 0.162436 0.123158
v 0.292296 0.163472 0.123953
v 0.293502 0.164678 0.124452
v 0.294796 0.165972 0.124623
v 0.118677 0.160972 0.119623
v 0.118506 0.161142 0.120917
v 0.118007 0.161642 0.122123
v 0.117212 0.162436 0.123158
v 0.116177 0.163472 0.123953
v 0.114971 0.164678 0.124452
v 0.113677 0.165972 0.124623
v 0.118677 -0.011872 0.119623
v 0.118506 -0.011702 0.120917
v 0.118007 -0.011202 0.122123
v 0.117212 -0.010408 0.123158
v 0.116177 -0.009372 0.123953
v 0.114971 -0.008166 0.124452
v 0.113677 -0.006872 0.124623
vn 0.0000 -0.0000 1.0000
vn 0.0000 0.0000 -1.0000
vn -0.1646 -0.1646 -0.9725
vn -0.1646 0.1646 -0.9725
vn -0.0655 0.0655 -0.9957
vn -0.0655 -0.0655 -0.9957
vn -0.2995 -0.2995 -0.9058
vn -0.2995 0.2995 -0.9058
vn -0.4371 -0.4371 -0.7860
vn -0.4371 0.4371 -0.7860
vn -0.5679 -0.5679 -0.5957
vn -0.5679 0.5679 -0.5957
vn -0.6684 -0.6684 -0.3262
vn -0.6684 0.6684 -0.3262
vn -0.6952 -0.6952 -0.1830
vn -0.6952 0.6952 -0.1831
vn 0.1646 0.1646 -0.9725
vn 0.0655 0.0655 -0.9957
vn 0.2995 0.2995 -0.9058
vn 0.4371 0.4371 -0.7860
vn 0.5679 0.5679 -0.5957
vn 0.6684 0.6684 -0.3262
vn 0.6952 0.6952 -0.1831
vn 0.0996 0.0996 -0.9900
vn 0.2368 0.2368 -0.9423
vn 0.3815 0.3815 -0.8419
vn 0.5292 0.5292 -0.6632
vn 0.6546 0.6546 -0.3780
vn 0.6952 0.6952 -0.1830
vn -0.0996 0.0996 -0.9900
vn -0.2368 0.2368 -0.9423
vn -0.3815 0.3815 -0.8419
vn -0.5292 0.5292 -0.6632
vn -0.6546 0.6546 -0.3780
vn -0.6952 0.6952 -0.1830
vn 0.1646 -0.1646 -0.9725
vn 0.0655 -0.0655 -0.9957
vn 0.2995 -0.2995 -0.9058
vn 0.4371 -0.4371 -0.7860
vn 0.5679 -0.5679 -0.5957
vn 0.6684 -0.6684 -0.3262
vn 0.6952 -0.6952 -0.1830
vn -0.0996 -0.0996 -0.9900
vn -0.2368 -0.2368 -0.9423
vn -0.3815 -0.3815 -0.8419
vn -0.5292 -0.5292 -0.6632
vn -0.6546 -0.6546 -0.3780
vn 0.0996 -0.0996 -0.9900
vn 0.2368 -0.2368 -0.9423
vn 0.3815 -0.3815 -0.8419
vn 0.5292 -0.5292 -0.6632
vn 0.6546 -0.6546 -0.3780
vn -0.7071 -0.7071 0.0000
vn -0.7071 0.7071 0.0000
vn 0.7071 0.7071 0.0000
vn 0.7071 -0.7071 0.0000
vn -0.6684 -0.6684 0.3262
vn -0.6684 0.6684 0.3262
vn -0.6952 0.6952 0.1831
vn -0.6952 -0.6952 0.1830
vn -0.5679 -0.5679 0.5957
vn -0.5679 0.5679 0.5957
vn -0.4371 -0.4371 0.7860
vn -0.4371 0.4371 0.7860
vn -0.2995 -0.2995 0.9058
vn -0.2995 0.2995 0.9058
vn -0.1646 -0.1646 0.9725
vn -0.1646 0.1646 0.9725
vn -0.0655 -0.0655 0.9957
vn -0.0655 0.0655 0.9957
vn 0.6684 0.6684 0.3262
vn 0.6952 0.6952 0.1831
vn 0.5679 0.5679 0.5957
vn 0.4371 0.4371 0.7860
vn 0.2995 0.2995 0.9058
vn 0.1646 0.1646 0.9725
vn 0.0655 0.0655 0.9957
vn 0.6546 0.6546 0.3780
vn 0.6952 0.6952 0.1830
vn 0.5292 0.5292 0.6632
vn 0.3815 0.3815 0.8419
vn 0.2368 0.2368 0.9423
vn 0.0996 0.0996 0.9900
vn -0.6546 0.6546 0.3780
vn -0.6952 0.6952 0.1830
vn -0.5292 0.5292 0.6632
vn -0.3815 0.3815 0.8419
vn -0.2368 0.2368 0.9423
vn -0.0996 0.0996 0.9900
vn 0.6684 -0.6684 0.3262
vn 0.6952 -0.6952 0.1830
vn 0.5679 -0.5679 0.5957
vn 0.4371 -0.4371 0.7860
vn 0.2995 -0.2995 0.9058
vn 0.1646 -0.1646 0.9725
vn 0.0655 -0.0655 0.9957
vn -0.6546 -0.6546 0.3780
vn -0.5292 -0.5292 0.6632
vn -0.3815 -0.3815 0.8419
vn -0.2368 -0.2368 0.9423
vn -0.0996 -0.0996 0.9900
vn 0.6546 -0.6546 0.3780
vn 0.5292 -0.5292 0.6632
vn 0.3815 -0.3815 0.8419
vn 0.2368 -0.2368 0.9423
vn 0.0996 -0.0996 0.9900
usemtl Material.002
s off
f 1//1 3//1 2//1
f 1//1 4//1 3//1
f 5//1 7//1 6//1
f 5//1 8//1 7//1
f 1//1 11//1 4//1
f 11//1 5//1 4//1
f 11//1 10//1 5//1
f 10//1 8//1 5//1
f 1//1 12//1 11//1
f 9//1 8//1 10//1
f 15//2 13//2 14//2
f 16//2 13//2 15//2
f 19//2 17//2 18//2
f 20//2 17//2 19//2
f 23//2 13//2 16//2
f 17//2 23//2 16//2
f 22//2 23//2 17//2
f 20//2 22//2 17//2
f 24//2 13//2 23//2
f 20//2 21//2 22//2
s 1
f 26//3 33//4 32//5 25//6
f 27//7 34//8 33//4 26//3
f 28//9 35//10 34//8 27//7
f 29//11 36//12 35//10 28//9
f 30//13 37//14 36//12 29//11
f 31//15 38//16 37//14 30//13
f 33//4 40//17 39//18 32//5
f 34//8 41//19 40//17 33//4
f 35//10 42//20 41//19 34//8
f 36//12 43//21 42//20 35//10
f 37//14 44//22 43//21 36//12
f 38//16 45//23 44//22 37//14
f 40//17 47//24 46//18 39//18
f 41//19 48//25 47//24 40//17
f 42//20 49//26 48//25 41//19
f 43//21 50//27 49//26 42//20
f 44//22 51//28 50//27 43//21
f 45//23 52//29 51//28 44//22
f 47//24 54//30 53//5 46//18
f 48//25 55//31 54//30 47//24
f 49//26 56//32 55//31 48//25
f 50//27 57//33 56//32 49//26
f 51//28 58//34 57//33 50//27
f 52//29 59//35 58//34 51//28
f 54//30 61//4 60//5 53//5
f 55//31 62//8 61//4 54//30
f 56//32 63//10 62//8 55//31
f 57//33 64//12 63//10 56//32
f 58//34 65//14 64//12 57//33
f 59//35 66//35 65//14 58//34
f 61//4 68//17 67//18 60//5
f 62//8 69//19 68//17 61//4
f 63//10 70//20 69//19 62//8
f 64//12 71//21 70//20 63//10
f 65//14 72//22 71//21 64//12
f 66//35 73//29 72//22 65//14
f 68//17 75//36 74//37 67//18
f 69//19 76//38 75//36 68//17
f 70//20 77//39 76//38 69//19
f 71//21 78//40 77//39 70//20
f 72//22 79//41 78//40 71//21
f 73//29 80//42 79//41 72//22
f 75//36 82//3 81//6 74//37
f 76//38 83//7 82//3 75//36
f 77//39 84//9 83//7 76//38
f 78//40 85//11 84//9 77//39
f 79//41 86//13 85//11 78//40
f 80//42 87//15 86//13 79//41
f 82//3 89//43 88//6 81//6
f 83//7 90//44 89//43 82//3
f 84//9 91//45 90//44 83//7
f 85//11 92//46 91//45 84//9
f 86//13 93//47 92//46 85//11
f 87//15 94//15 93//47 86//13
f 89//43 96//48 95//37 88//6
f 90//44 97//49 96//48 89//43
f 91//45 98//50 97//49 90//44
f 92//46 99//51 98//50 91//45
f 93//47 100//52 99//51 92//46
f 94//15 101//42 100//52 93//47
f 96//48 103//36 102//37 95//37
f 97//49 104//38 103//36 96//48
f 98//50 105//39 104//38 97//49
f 99//51 106//40 105//39 98//50
f 100//52 107//41 106//40 99//51
f 101//42 108//42 107//41 100//52
f 103//36 26//3 25//6 102//37
f 104//38 27//7 26//3 103//36
f 105//39 28//9 27//7 104//38
f 106//40 29//11 28//9 105//39
f 107//41 30//13 29//11 106//40
f 108//42 31//15 30//13 107//41
f 110//53 112//54 111//54 109//53
f 112//54 114//55 113//55 111//54
f 114//55 116//55 115//55 113//55
f 116//55 118//54 117//54 115//55
f 118//54 120//54 119//54 117//54
f 120//54 122//55 121//55 119//54
f 122//55 124//56 123//56 121//55
f 124//56 126//53 125//53 123//56
f 126//53 128//53 127//53 125//53
f 128//53 130//56 129//56 127//53
f 130//56 132//56 131//56 129//56
f 132//56 110//53 109//53 131//56
f 134//57 141//58 140//59 133//60
f 135//61 142//62 141//58 134//57
f 136//63 143//64 142//62 135//61
f 137//65 144//66 143//64 136//63
f 138//67 145//68 144//66 137//65
f 139//69 146//70 145//68 138//67
f 141//58 148//71 147//72 140//59
f 142//62 149//73 148//71 141//58
f 143//64 150//74 149//73 142//62
f 144//66 151//75 150//74 143//64
f 145//68 152//76 151//75 144//66
f 146//70 153//77 152//76 145//68
f 148//71 155//78 154//79 147//72
f 149//73 156//80 155//78 148//71
f 150//74 157//81 156//80 149//73
f 151//75 158//82 157//81 150//74
f 152//76 159//83 158//82 151//75
f 153//77 160//77 159//83 152//76
f 155//78 162//84 161//85 154//79
f 156//80 163//86 162//84 155//78
f 157//81 164//87 163//86 156//80
f 158//82 165//88 164//87 157//81
f 159//83 166//89 165//88 158//82
f 160//77 167//70 166//89 159//83
f 162//84 169//58 168//85 161//85
f 163//86 170//62 169//58 162//84
f 164//87 171//64 170//62 163//86
f 165//88 172//66 171//64 164//87
f 166//89 173//68 172//66 165//88
f 167//70 174//70 173//68 166//89
f 169//58 176//71 175//79 168//85
f 170//62 177//73 176//71 169//58
f 171//64 178//74 177//73 170//62
f 172//66 179//75 178//74 171//64
f 173//68 180//76 179//75 172//66
f 174//70 181//77 180//76 173//68
f 176//71 183//90 182//91 175//79
f 177//73 184//92 183//90 176//71
f 178//74 185//93 184//92 177//73
f 179//75 186//94 185//93 178//74
f 180//76 187//95 186//94 179//75
f 181//77 188//96 187//95 180//76
f 183//90 190//57 189//60 182//91
f 184//92 191//61 190//57 183//90
f 185//93 192//63 191//61 184//92
f 186//94 193//65 192//63 185//93
f 187//95 194//67 193//65 186//94
f 188//96 195//69 194//67 187//95
f 190//57 197//97 196//60 189//60
f 191//61 198//98 197//97 190//57
f 192//63 199//99 198//98 191//61
f 193//65 200//100 199//99 192//63
f 194//67 201//101 200//100 193//65
f 195//69 202//69 201//101 194//67
f 197//97 204//102 203//91 196//60
f 198//98 205//103 204//102 197//97
f 199//99 206//104 205//103 198//98
f 200//100 207//105 206//104 199//99
f 201//101 208//106 207//105 200//100
f 202//69 209//96 208//106 201//101
f 204//102 211//90 210//91 203//91
f 205//103 212//92 211//90 204//102
f 206//104 213//93 212//92 205//103
f 207//105 214//94 213//93 206//104
f 208//106 215//95 214//94 207//105
f 209//96 216//96 215//95 208//106
f 211//90 134//57 133//60 210//91
f 212//92 135//61 134//57 211//90
f 213//93 136//63 135//61 212//92
f 214//94 137//65 136//63 213//93
f 215//95 138//67 137//65 214//94
f 216//96 139//69 138//67 215//95
