# Blender v2.79 (sub 0) OBJ File: ''
# www.blender.org
mtllib T.mtl
o Text_Text.003
v 0.263768 -0.006872 0.124623
v 0.190576 -0.006872 0.124623
v 0.190576 0.467623 0.124623
v 0.013328 0.467623 0.124623
v 0.013328 0.533110 0.124623
v 0.441750 0.533110 0.124623
v 0.441750 0.467623 0.124623
v 0.263768 0.467623 0.124623
v 0.263768 -0.006872 -0.055377
v 0.190576 -0.006872 -0.055377
v 0.190576 0.467623 -0.055377
v 0.013328 0.467623 -0.055377
v 0.013328 0.533110 -0.055377
v 0.441750 0.533110 -0.055377
v 0.441750 0.467623 -0.055377
v 0.263768 0.467623 -0.055377
v 0.263768 -0.006872 -0.055377
v 0.265062 -0.008166 -0.055207
v 0.266268 -0.009372 -0.054707
v 0.267304 -0.010408 -0.053913
v 0.268099 -0.011202 -0.052877
v 0.268598 -0.011702 -0.051671
v 0.268768 -0.011872 -0.050377
v 0.190576 -0.006872 -0.055377
v 0.189282 -0.008166 -0.055207
v 0.188076 -0.009372 -0.054707
v 0.187040 -0.010408 -0.053913
v 0.186245 -0.011202 -0.052877
v 0.185746 -0.011702 -0.051671
v 0.185576 -0.011872 -0.050377
v 0.190576 0.467623 -0.055377
v 0.189282 0.466329 -0.055207
v 0.188076 0.465123 -0.054707
v 0.187040 0.464088 -0.053913
v 0.186245 0.463293 -0.052877
v 0.185746 0.462794 -0.051671
v 0.185576 0.462623 -0.050377
v 0.013328 0.467623 -0.055377
v 0.012034 0.466329 -0.055207
v 0.010828 0.465123 -0.054707
v 0.009792 0.464088 -0.053913
v 0.008998 0.463293 -0.052877
v 0.008498 0.462794 -0.051671
v 0.008328 0.462623 -0.050377
v 0.013328 0.533110 -0.055377
v 0.012034 0.534404 -0.055207
v 0.010828 0.535610 -0.054707
v 0.009792 0.536645 -0.053913
v 0.008998 0.537440 -0.052877
v 0.008498 0.537939 -0.051671
v 0.008328 0.538110 -0.050377
v 0.441750 0.533110 -0.055377
v 0.443044 0.534404 -0.055207
v 0.444250 0.535610 -0.054707
v 0.445286 0.536645 -0.053913
v 0.446080 0.537440 -0.052877
v 0.446580 0.537939 -0.051671
v 0.446750 0.538110 -0.050377
v 0.441750 0.467623 -0.055377
v 0.443044 0.466329 -0.055207
v 0.444250 0.465123 -0.054707
v 0.445286 0.464088 -0.053913
v 0.446080 0.463293 -0.052877
v 0.446580 0.462794 -0.051671
v 0.446750 0.462623 -0.050377
v 0.263768 0.467623 -0.055377
v 0.265062 0.466329 -0.055207
v 0.266268 0.465123 -0.054707
v 0.267304 0.464088 -0.053913
v 0.268099 0.463293 -0.052877
v 0.268598 0.462794 -0.051671
v 0.268768 0.462623 -0.050377
v 0.268768 -0.011872 -0.050377
v 0.268768 -0.011872 0.119623
v 0.185576 -0.011872 -0.050377
v 0.185576 -0.011872 0.119623
v 0.185576 0.462623 -0.050377
v 0.185576 0.462623 0.119623
v 0.008328 0.462623 -0.050377
v 0.008328 0.462623 0.119623
v 0.008328 0.538110 -0.050377
v 0.008328 0.538110 0.119623
v 0.446750 0.538110 -0.050377
v 0.446750 0.538110 0.119623
v 0.446750 0.462623 -0.050377
v 0.446750 0.462623 0.119623
v 0.268768 0.462623 -0.050377
v 0.268768 0.462623 0.119623
v 0.268768 -0.011872 0.119623
v 0.268598 -0.011702 0.120917
v 0.268099 -0.011202 0.122123
v 0.267304 -0.010408 0.123158
v 0.266268 -0.009372 0.123953
v 0.265062 -0.008166 0.124452
v 0.263768 -0.006872 0.124623
v 0.185576 -0.011872 0.119623
v 0.185746 -0.011702 0.120917
v 0.186245 -0.011202 0.122123
v 0.187040 -0.010408 0.123158
v 0.188076 -0.009372 0.123953
v 0.189282 -0.008166 0.124452
v 0.190576 -0.006872 0.124623
v 0.185576 0.462623 0.119623
v 0.185746 0.462794 0.120917
v 0.186245 0.463293 0.122123
v 0.187040 0.464088 0.123158
v 0.188076 0.465123 0.123953
v 0.189282 0.466329 0.124452
v 0.190576 0.467623 0.124623
v 0.008328 0.462623 0.119623
v 0.008498 0.462794 0.120917
v 0.008998 0.463293 0.122123
v 0.009792 0.464088 0.123158
v 0.010828 0.465123 0.123953
v 0.012034 0.466329 0.124452
v 0.013328 0.467623 0.124623
v 0.008328 0.538110 0.119623
v 0.008498 0.537939 0.120917
v 0.008998 0.537440 0.122123
v 0.009792 0.536645 0.123158
v 0.010828 0.535610 0.123953
v 0.012034 0.534404 0.124452
v 0.013328 0.533110 0.124623
v 0.446750 0.538110 0.119623
v 0.446580 0.537939 0.120917
v 0.446080 0.537440 0.122123
v 0.445286 0.536645 0.123158
v 0.444250 0.535610 0.123953
v 0.443044 0.534404 0.124452
v 0.441750 0.533110 0.124623
v 0.446750 0.462623 0.119623
v 0.446580 0.462794 0.120917
v 0.446080 0.463293 0.122123
v 0.445286 0.464088 0.123158
v 0.444250 0.465123 0.123953
v 0.443044 0.466329 0.124452
v 0.441750 0.467623 0.124623
v 0.268768 0.462623 0.119623
v 0.268598 0.462794 0.120917
v 0.268099 0.463293 0.122123
v 0.267304 0.464088 0.123158
v 0.266268 0.465123 0.123953
v 0.265062 0.466329 0.124452
v 0.263768 0.467623 0.124623
vn 0.0000 0.0000 1.0000
vn 0.0000 0.0000 -1.0000
vn 0.1646 -0.1646 -0.9725
vn -0.1646 -0.1646 -0.9725
vn -0.0655 -0.0655 -0.9957
vn 0.0655 -0.0655 -0.9957
vn 0.2995 -0.2995 -0.9058
vn -0.2995 -0.2995 -0.9058
vn 0.4371 -0.4371 -0.7860
vn -0.4371 -0.4371 -0.7860
vn 0.5679 -0.5679 -0.5957
vn -0.5679 -0.5679 -0.5957
vn 0.6684 -0.6684 -0.3262
vn -0.6684 -0.6684 -0.3262
vn 0.6952 -0.6952 -0.1830
vn -0.6952 -0.6952 -0.1830
vn -0.0996 -0.0996 -0.9900
vn -0.2368 -0.2368 -0.9423
vn -0.3815 -0.3816 -0.8419
vn -0.5292 -0.5292 -0.6632
vn -0.6546 -0.6546 -0.3780
vn -0.6952 -0.6952 -0.1831
vn -0.1646 0.1646 -0.9725
vn -0.0655 0.0655 -0.9957
vn -0.2995 0.2995 -0.9058
vn -0.4371 0.4371 -0.7860
vn -0.5679 0.5679 -0.5958
vn -0.6684 0.6684 -0.3262
vn -0.6952 0.6952 -0.1830
vn 0.1646 0.1646 -0.9725
vn 0.0655 0.0655 -0.9957
vn 0.2995 0.2995 -0.9058
vn 0.4371 0.4371 -0.7860
vn 0.5679 0.5679 -0.5958
vn 0.6684 0.6684 -0.3262
vn 0.6952 0.6952 -0.1830
vn 0.0996 -0.0996 -0.9900
vn 0.2368 -0.2368 -0.9423
vn 0.3815 -0.3815 -0.8419
vn 0.5292 -0.5292 -0.6632
vn 0.6546 -0.6546 -0.3780
vn 0.7071 -0.7071 0.0000
vn -0.7071 -0.7071 0.0000
vn -0.7071 0.7071 0.0000
vn 0.7071 0.7071 0.0000
vn 0.6684 -0.6684 0.3262
vn -0.6684 -0.6684 0.3262
vn -0.6952 -0.6952 0.1830
vn 0.6952 -0.6952 0.1830
vn 0.5679 -0.5679 0.5957
vn -0.5679 -0.5679 0.5957
vn 0.4371 -0.4371 0.7860
vn -0.4371 -0.4371 0.7860
vn 0.2995 -0.2995 0.9058
vn -0.2995 -0.2995 0.9058
vn 0.1646 -0.1646 0.9725
vn -0.1646 -0.1646 0.9725
vn 0.0655 -0.0655 0.9957
vn -0.0655 -0.0655 0.9957
vn -0.6546 -0.6546 0.3780
vn -0.6952 -0.6952 0.1831
vn -0.5292 -0.5292 0.6632
vn -0.3815 -0.3815 0.8419
vn -0.2368 -0.2368 0.9423
vn -0.0996 -0.0996 0.9900
vn -0.6684 0.6684 0.3262
vn -0.6952 0.6952 0.1830
vn -0.5679 0.5679 0.5958
vn -0.4371 0.4371 0.7860
vn -0.2995 0.2995 0.9058
vn -0.1646 0.1646 0.9725
vn -0.0655 0.0655 0.9957
vn 0.6684 0.6684 0.3262
vn 0.6952 0.6952 0.1830
vn 0.5679 0.5679 0.5958
vn 0.4371 0.4371 0.7860
vn 0.2995 0.2995 0.9058
vn 0.1646 0.1646 0.9725
vn 0.0655 0.0655 0.9957
vn 0.6546 -0.6546 0.3780
vn 0.5292 -0.5292 0.6632
vn 0.3815 -0.3815 0.8419
vn 0.2368 -0.2368 0.9423
vn 0.0996 -0.0996 0.9900
usemtl Material.002
s off
f 4//1 6//1 5//1
f 4//1 7//1 6//1
f 3//1 7//1 4//1
f 2//1 8//1 3//1
f 8//2 7//2 3//2
f 2//1 1//1 8//1
f 14//2 12//2 13//2
f 15//2 12//2 14//2
f 15//1 11//1 12//1
f 16//2 10//2 11//2
f 15//1 16//1 11//1
f 9//2 10//2 16//2
s 1
f 18//3 25//4 24//5 17//6
f 19//7 26//8 25//4 18//3
f 20//9 27//10 26//8 19//7
f 21//11 28//12 27//10 20//9
f 22//13 29//14 28//12 21//11
f 23//15 30//16 29//14 22//13
f 25//4 32//17 31//5 24//5
f 26//8 33//18 32//17 25//4
f 27//10 34//19 33//18 26//8
f 28//12 35//20 34//19 27//10
f 29//14 36//21 35//20 28//12
f 30//16 37//22 36//21 29//14
f 32//17 39//4 38//5 31//5
f 33//18 40//8 39//4 32//17
f 34//19 41//10 40//8 33//18
f 35//20 42//12 41//10 34//19
f 36//21 43//14 42//12 35//20
f 37//22 44//22 43//14 36//21
f 39//4 46//23 45//24 38//5
f 40//8 47//25 46//23 39//4
f 41//10 48//26 47//25 40//8
f 42//12 49//27 48//26 41//10
f 43//14 50//28 49//27 42//12
f 44//22 51//29 50//28 43//14
f 46//23 53//30 52//31 45//24
f 47//25 54//32 53//30 46//23
f 48//26 55//33 54//32 47//25
f 49//27 56//34 55//33 48//26
f 50//28 57//35 56//34 49//27
f 51//29 58//36 57//35 50//28
f 53//30 60//3 59//6 52//31
f 54//32 61//7 60//3 53//30
f 55//33 62//9 61//7 54//32
f 56//34 63//11 62//9 55//33
f 57//35 64//13 63//11 56//34
f 58//36 65//15 64//13 57//35
f 60//3 67//37 66//6 59//6
f 61//7 68//38 67//37 60//3
f 62//9 69//39 68//38 61//7
f 63//11 70//40 69//39 62//9
f 64//13 71//41 70//40 63//11
f 65//15 72//15 71//41 64//13
f 67//37 18//3 17//6 66//6
f 68//38 19//7 18//3 67//37
f 69//39 20//9 19//7 68//38
f 70//40 21//11 20//9 69//39
f 71//41 22//13 21//11 70//40
f 72//15 23//15 22//13 71//41
f 74//42 76//43 75//43 73//42
f 76//43 78//43 77//43 75//43
f 78//43 80//43 79//43 77//43
f 80//43 82//44 81//44 79//43
f 82//44 84//45 83//45 81//44
f 84//45 86//42 85//42 83//45
f 86//42 88//42 87//42 85//42
f 88//42 74//42 73//42 87//42
f 90//46 97//47 96//48 89//49
f 91//50 98//51 97//47 90//46
f 92//52 99//53 98//51 91//50
f 93//54 100//55 99//53 92//52
f 94//56 101//57 100//55 93//54
f 95//58 102//59 101//57 94//56
f 97//47 104//60 103//61 96//48
f 98//51 105//62 104//60 97//47
f 99//53 106//63 105//62 98//51
f 100//55 107//64 106//63 99//53
f 101//57 108//65 107//64 100//55
f 102//59 109//59 108//65 101//57
f 104//60 111//47 110//61 103//61
f 105//62 112//51 111//47 104//60
f 106//63 113//53 112//51 105//62
f 107//64 114//55 113//53 106//63
f 108//65 115//57 114//55 107//64
f 109//59 116//59 115//57 108//65
f 111//47 118//66 117//67 110//61
f 112//51 119//68 118//66 111//47
f 113//53 120//69 119//68 112//51
f 114//55 121//70 120//69 113//53
f 115//57 122//71 121//70 114//55
f 116//59 123//72 122//71 115//57
f 118//66 125//73 124//74 117//67
f 119//68 126//75 125//73 118//66
f 120//69 127//76 126//75 119//68
f 121//70 128//77 127//76 120//69
f 122//71 129//78 128//77 121//70
f 123//72 130//79 129//78 122//71
f 125//73 132//46 131//49 124//74
f 126//75 133//50 132//46 125//73
f 127//76 134//52 133//50 126//75
f 128//77 135//54 134//52 127//76
f 129//78 136//56 135//54 128//77
f 130//79 137//58 136//56 129//78
f 132//46 139//80 138//49 131//49
f 133//50 140//81 139//80 132//46
f 134//52 141//82 140//81 133//50
f 135//54 142//83 141//82 134//52
f 136//56 143//84 142//83 135//54
f 137//58 144//58 143//84 136//56
f 139//80 90//46 89//49 138//49
f 140//81 91//50 90//46 139//80
f 141//82 92//52 91//50 140//81
f 142//83 93//54 92//52 141//82
f 143//84 94//56 93//54 142//83
f 144//58 95//58 94//56 143//84
